<svg xmlns="http://www.w3.org/2000/svg" xmlns:xlink="http://www.w3.org/1999/xlink" width="500" zoomAndPan="magnify" viewBox="0 0 375 374.999991" height="500" preserveAspectRatio="xMidYMid meet" version="1.0"><defs><g/><clipPath id="2a950d3fda"><path d="M 220 74 L 317.222656 74 L 317.222656 133 L 220 133 Z M 220 74 " clip-rule="nonzero"/></clipPath><clipPath id="52c616cf12"><path d="M 220 114 L 317.222656 114 L 317.222656 151 L 220 151 Z M 220 114 " clip-rule="nonzero"/></clipPath><clipPath id="bbe1fb2f28"><path d="M 252 114 L 317.222656 114 L 317.222656 180 L 252 180 Z M 252 114 " clip-rule="nonzero"/></clipPath><clipPath id="62758d8825"><path d="M 254 178 L 317.222656 178 L 317.222656 227 L 254 227 Z M 254 178 " clip-rule="nonzero"/></clipPath><clipPath id="f660d735f2"><path d="M 294 114 L 317.222656 114 L 317.222656 189 L 294 189 Z M 294 114 " clip-rule="nonzero"/></clipPath><clipPath id="e83aa281e6"><path d="M 254 190 L 317.222656 190 L 317.222656 267 L 254 267 Z M 254 190 " clip-rule="nonzero"/></clipPath><clipPath id="54979725ae"><path d="M 281 266 L 317.222656 266 L 317.222656 289 L 281 289 Z M 281 266 " clip-rule="nonzero"/></clipPath><clipPath id="61b68a0e41"><path d="M 281 193 L 317.222656 193 L 317.222656 269 L 281 269 Z M 281 193 " clip-rule="nonzero"/></clipPath><clipPath id="6c2128bc4b"><path d="M 183 232 L 255 232 L 255 345.683594 L 183 345.683594 Z M 183 232 " clip-rule="nonzero"/></clipPath><clipPath id="1df42eb832"><path d="M 183 37.5 L 209 37.5 L 209 111 L 183 111 Z M 183 37.5 " clip-rule="nonzero"/></clipPath><clipPath id="ac04859135"><path d="M 50.222656 250 L 147 250 L 147 309 L 50.222656 309 Z M 50.222656 250 " clip-rule="nonzero"/></clipPath><clipPath id="d062fb134f"><path d="M 50.222656 232 L 147 232 L 147 269 L 50.222656 269 Z M 50.222656 232 " clip-rule="nonzero"/></clipPath><clipPath id="a22060abb1"><path d="M 50.222656 203 L 115 203 L 115 269 L 50.222656 269 Z M 50.222656 203 " clip-rule="nonzero"/></clipPath><clipPath id="fe03898479"><path d="M 50.222656 156 L 114 156 L 114 206 L 50.222656 206 Z M 50.222656 156 " clip-rule="nonzero"/></clipPath><clipPath id="0f7936506d"><path d="M 50.222656 194 L 74 194 L 74 269 L 50.222656 269 Z M 50.222656 194 " clip-rule="nonzero"/></clipPath><clipPath id="4a5292135c"><path d="M 50.222656 116 L 114 116 L 114 193 L 50.222656 193 Z M 50.222656 116 " clip-rule="nonzero"/></clipPath><clipPath id="8005e65fbe"><path d="M 50.222656 94 L 86 94 L 86 117 L 50.222656 117 Z M 50.222656 94 " clip-rule="nonzero"/></clipPath><clipPath id="5c356655ab"><path d="M 50.222656 114 L 86 114 L 86 190 L 50.222656 190 Z M 50.222656 114 " clip-rule="nonzero"/></clipPath><clipPath id="b54af0d58a"><path d="M 113 37.5 L 184 37.5 L 184 152 L 113 152 Z M 113 37.5 " clip-rule="nonzero"/></clipPath><clipPath id="98b9e7b0ad"><path d="M 158 272 L 184 272 L 184 345.683594 L 158 345.683594 Z M 158 272 " clip-rule="nonzero"/></clipPath><clipPath id="9571550199"><path d="M 26.171875 162.496094 L 348.828125 162.496094 L 348.828125 214 L 26.171875 214 Z M 26.171875 162.496094 " clip-rule="nonzero"/></clipPath></defs><rect x="-37.5" width="450" fill="#ffffff" y="-37.499999" height="449.999989" fill-opacity="1"/><rect x="-37.5" width="450" fill="#ffffff" y="-37.499999" height="449.999989" fill-opacity="1"/><rect x="-37.5" width="450" fill="#000000" y="-37.499999" height="449.999989" fill-opacity="1"/><path fill="#eeb01e" d="M 186.550781 111.859375 L 183.78125 110.195312 L 207.832031 51.515625 L 245.625 73.367188 Z M 186.550781 111.859375 " fill-opacity="1" fill-rule="nonzero"/><path fill="#fbc515" d="M 221.683594 132.160156 L 185.554688 111.304688 L 244.628906 72.703125 L 247.953125 74.699219 Z M 221.683594 132.160156 " fill-opacity="1" fill-rule="nonzero"/><g clip-path="url(#2a950d3fda)"><path fill="#ed8c22" d="M 222.128906 132.378906 L 220.796875 131.605469 L 247.066406 74.144531 L 317.222656 114.742188 Z M 222.128906 132.378906 " fill-opacity="1" fill-rule="nonzero"/></g><g clip-path="url(#52c616cf12)"><path fill="#ed5e27" d="M 253.605469 150.574219 L 220.6875 131.605469 L 317.222656 114.742188 Z M 253.605469 150.574219 " fill-opacity="1" fill-rule="nonzero"/></g><g clip-path="url(#bbe1fb2f28)"><path fill="#ef4d24" d="M 295.058594 179.523438 L 254.382812 153.902344 L 254.382812 151.015625 L 252.496094 150.019531 L 317.222656 114.742188 Z M 295.058594 179.523438 " fill-opacity="1" fill-rule="nonzero"/></g><path fill="#ce579e" d="M 254.382812 224.117188 L 254.382812 151.015625 L 295.613281 178.636719 Z M 254.382812 224.117188 " fill-opacity="1" fill-rule="nonzero"/><g clip-path="url(#62758d8825)"><path fill="#c01f54" d="M 317.222656 191.503906 L 317.222656 187.511719 L 294.613281 178.082031 L 254.382812 222.5625 L 254.382812 226.667969 Z M 317.222656 191.503906 " fill-opacity="1" fill-rule="nonzero"/></g><g clip-path="url(#f660d735f2)"><path fill="#f05c67" d="M 317.222656 188.730469 L 317.222656 114.742188 L 294.171875 178.96875 Z M 317.222656 188.730469 " fill-opacity="1" fill-rule="nonzero"/></g><g clip-path="url(#e83aa281e6)"><path fill="#ea3490" d="M 281.980469 266.492188 L 317.222656 196.273438 L 317.222656 190.285156 L 254.382812 225.449219 L 254.382812 232.101562 Z M 281.980469 266.492188 " fill-opacity="1" fill-rule="nonzero"/></g><path fill="#ce579e" d="M 248.285156 308.308594 L 281.980469 266.492188 L 254.382812 232.101562 L 238.308594 313.964844 Z M 248.285156 308.308594 " fill-opacity="1" fill-rule="nonzero"/><path fill="#9c226e" d="M 283.308594 288.011719 L 281.980469 266.492188 L 245.738281 309.75 Z M 283.308594 288.011719 " fill-opacity="1" fill-rule="nonzero"/><g clip-path="url(#54979725ae)"><path fill="#ea3490" d="M 317.222656 268.375 L 281.980469 266.492188 L 282.3125 288.566406 Z M 317.222656 268.375 " fill-opacity="1" fill-rule="nonzero"/></g><g clip-path="url(#61b68a0e41)"><path fill="#c21a7e" d="M 317.222656 268.375 L 317.222656 193.945312 L 281.980469 266.492188 Z M 317.222656 268.375 " fill-opacity="1" fill-rule="nonzero"/></g><g clip-path="url(#6c2128bc4b)"><path fill="#c21a7e" d="M 239.53125 313.300781 L 254.382812 232.101562 L 183.78125 345.582031 Z M 239.53125 313.300781 " fill-opacity="1" fill-rule="nonzero"/><path fill="#ea3490" d="M 254.382812 232.101562 L 183.78125 272.925781 L 183.78125 345.582031 Z M 254.382812 232.101562 " fill-opacity="1" fill-rule="nonzero"/></g><g clip-path="url(#1df42eb832)"><path fill="#fbeb6f" d="M 208.71875 52.070312 L 208.605469 52.402344 L 183.78125 110.195312 L 183.78125 37.539062 Z M 208.71875 52.070312 " fill-opacity="1" fill-rule="nonzero"/></g><path fill="#564597" d="M 180.898438 271.261719 L 183.667969 272.925781 L 159.617188 331.605469 L 121.824219 309.75 Z M 180.898438 271.261719 " fill-opacity="1" fill-rule="nonzero"/><path fill="#425099" d="M 145.765625 250.960938 L 181.894531 271.816406 L 122.820312 310.417969 L 119.496094 308.421875 Z M 145.765625 250.960938 " fill-opacity="1" fill-rule="nonzero"/><g clip-path="url(#ac04859135)"><path fill="#2a3680" d="M 145.429688 250.738281 L 146.652344 251.515625 L 120.382812 308.976562 L 50.222656 268.375 Z M 145.429688 250.738281 " fill-opacity="1" fill-rule="nonzero"/></g><g clip-path="url(#d062fb134f)"><path fill="#4077b8" d="M 113.953125 232.546875 L 146.761719 251.515625 L 50.222656 268.375 Z M 113.953125 232.546875 " fill-opacity="1" fill-rule="nonzero"/></g><g clip-path="url(#a22060abb1)"><path fill="#208cba" d="M 72.503906 203.59375 L 113.066406 229.21875 L 113.066406 232.101562 L 114.953125 233.210938 L 50.222656 268.375 Z M 72.503906 203.59375 " fill-opacity="1" fill-rule="nonzero"/></g><path fill="#5fb2d1" d="M 113.179688 159.003906 L 113.066406 232.101562 L 71.949219 204.484375 Z M 113.179688 159.003906 " fill-opacity="1" fill-rule="nonzero"/><g clip-path="url(#fe03898479)"><path fill="#48c3d2" d="M 50.222656 191.617188 L 50.222656 195.496094 L 72.835938 205.039062 L 113.179688 160.554688 L 113.179688 156.453125 Z M 50.222656 191.617188 " fill-opacity="1" fill-rule="nonzero"/></g><g clip-path="url(#0f7936506d)"><path fill="#07b9e4" d="M 50.222656 194.386719 L 50.222656 268.375 L 73.390625 204.148438 Z M 50.222656 194.386719 " fill-opacity="1" fill-rule="nonzero"/></g><g clip-path="url(#4a5292135c)"><path fill="#008c5b" d="M 85.46875 116.628906 L 50.222656 186.84375 L 50.222656 192.835938 L 113.179688 157.671875 L 113.179688 151.015625 Z M 85.46875 116.628906 " fill-opacity="1" fill-rule="nonzero"/></g><path fill="#17b37b" d="M 119.386719 74.808594 L 85.46875 116.628906 L 113.179688 151.015625 L 129.25 69.152344 Z M 119.386719 74.808594 " fill-opacity="1" fill-rule="nonzero"/><path fill="#68c29b" d="M 84.25 95.109375 L 85.46875 116.628906 L 121.933594 73.367188 Z M 84.25 95.109375 " fill-opacity="1" fill-rule="nonzero"/><g clip-path="url(#8005e65fbe)"><path fill="#a3d6bc" d="M 50.335938 114.632812 L 85.46875 116.628906 L 85.25 94.445312 Z M 50.335938 114.632812 " fill-opacity="1" fill-rule="nonzero"/></g><g clip-path="url(#5c356655ab)"><path fill="#26654b" d="M 50.335938 114.632812 L 50.222656 189.175781 L 85.46875 116.628906 Z M 50.335938 114.632812 " fill-opacity="1" fill-rule="nonzero"/></g><g clip-path="url(#b54af0d58a)"><path fill="#8abb3f" d="M 128.140625 69.820312 L 113.179688 151.015625 L 183.78125 37.648438 Z M 128.140625 69.820312 " fill-opacity="1" fill-rule="nonzero"/><path fill="#b8d232" d="M 113.179688 151.015625 L 183.78125 110.304688 L 183.78125 37.648438 Z M 113.179688 151.015625 " fill-opacity="1" fill-rule="nonzero"/></g><g clip-path="url(#98b9e7b0ad)"><path fill="#9c226e" d="M 158.730469 331.160156 L 158.84375 330.714844 L 183.667969 272.925781 L 183.667969 345.582031 Z M 158.730469 331.160156 " fill-opacity="1" fill-rule="nonzero"/></g><g clip-path="url(#9571550199)"><path fill="#000000" d="M 26.171875 162.496094 L 349.164062 162.496094 L 349.164062 213.816406 L 26.171875 213.816406 Z M 26.171875 162.496094 " fill-opacity="1" fill-rule="nonzero"/></g><g fill="#ff66c4" fill-opacity="1"><g transform="translate(24.675293, 189.023601)"><g><path d="M 10.671875 0 L 5.421875 0 L 5.421875 -15.125 L 0.671875 -15.125 L 0.671875 -19.421875 L 15.390625 -19.421875 L 15.390625 -15.125 L 10.671875 -15.125 Z M 10.671875 0 "/></g></g></g><g fill="#ff66c4" fill-opacity="1"><g transform="translate(43.765745, 189.023601)"><g><path d="M 14.015625 0 L 13.0625 -3.640625 L 6.75 -3.640625 L 5.765625 0 L 0 0 L 6.328125 -19.5 L 13.328125 -19.5 L 19.75 0 Z M 11.96875 -7.9375 L 11.125 -11.125 C 10.9375 -11.832031 10.703125 -12.75 10.421875 -13.875 C 10.140625 -15 9.957031 -15.804688 9.875 -16.296875 C 9.789062 -15.847656 9.628906 -15.101562 9.390625 -14.0625 C 9.160156 -13.03125 8.644531 -10.988281 7.84375 -7.9375 Z M 11.96875 -7.9375 "/></g></g></g><g fill="#ff66c4" fill-opacity="1"><g transform="translate(66.535004, 189.023601)"><g><path d="M 14.796875 -5.890625 C 14.796875 -4.691406 14.488281 -3.625 13.875 -2.6875 C 13.269531 -1.75 12.390625 -1.019531 11.234375 -0.5 C 10.085938 0.0078125 8.738281 0.265625 7.1875 0.265625 C 5.894531 0.265625 4.804688 0.175781 3.921875 0 C 3.046875 -0.1875 2.140625 -0.503906 1.203125 -0.953125 L 1.203125 -5.625 C 2.203125 -5.113281 3.238281 -4.710938 4.3125 -4.421875 C 5.394531 -4.140625 6.390625 -4 7.296875 -4 C 8.078125 -4 8.644531 -4.132812 9 -4.40625 C 9.363281 -4.675781 9.546875 -5.023438 9.546875 -5.453125 C 9.546875 -5.710938 9.472656 -5.941406 9.328125 -6.140625 C 9.179688 -6.335938 8.945312 -6.535156 8.625 -6.734375 C 8.300781 -6.941406 7.441406 -7.363281 6.046875 -8 C 4.773438 -8.570312 3.820312 -9.128906 3.1875 -9.671875 C 2.5625 -10.210938 2.09375 -10.832031 1.78125 -11.53125 C 1.476562 -12.226562 1.328125 -13.054688 1.328125 -14.015625 C 1.328125 -15.804688 1.976562 -17.203125 3.28125 -18.203125 C 4.582031 -19.203125 6.367188 -19.703125 8.640625 -19.703125 C 10.648438 -19.703125 12.703125 -19.234375 14.796875 -18.296875 L 13.1875 -14.25 C 11.375 -15.082031 9.804688 -15.5 8.484375 -15.5 C 7.804688 -15.5 7.3125 -15.378906 7 -15.140625 C 6.6875 -14.898438 6.53125 -14.601562 6.53125 -14.25 C 6.53125 -13.875 6.726562 -13.535156 7.125 -13.234375 C 7.519531 -12.929688 8.585938 -12.378906 10.328125 -11.578125 C 12.003906 -10.828125 13.164062 -10.019531 13.8125 -9.15625 C 14.46875 -8.289062 14.796875 -7.203125 14.796875 -5.890625 Z M 14.796875 -5.890625 "/></g></g></g><g fill="#ff66c4" fill-opacity="1"><g transform="translate(85.253594, 189.023601)"><g><path d="M 18.734375 0 L 13.46875 0 L 13.46875 -7.921875 L 7.375 -7.921875 L 7.375 0 L 2.09375 0 L 2.09375 -19.421875 L 7.375 -19.421875 L 7.375 -12.21875 L 13.46875 -12.21875 L 13.46875 -19.421875 L 18.734375 -19.421875 Z M 18.734375 0 "/></g></g></g><g fill="#ff66c4" fill-opacity="1"><g transform="translate(109.11188, 189.023601)"><g><path d="M 14.015625 0 L 13.0625 -3.640625 L 6.75 -3.640625 L 5.765625 0 L 0 0 L 6.328125 -19.5 L 13.328125 -19.5 L 19.75 0 Z M 11.96875 -7.9375 L 11.125 -11.125 C 10.9375 -11.832031 10.703125 -12.75 10.421875 -13.875 C 10.140625 -15 9.957031 -15.804688 9.875 -16.296875 C 9.789062 -15.847656 9.628906 -15.101562 9.390625 -14.0625 C 9.160156 -13.03125 8.644531 -10.988281 7.84375 -7.9375 Z M 11.96875 -7.9375 "/></g></g></g><g fill="#ff66c4" fill-opacity="1"><g transform="translate(131.881135, 189.023601)"><g><path d="M 6.328125 -19.421875 L 5.796875 -12.40625 L 2.15625 -12.40625 L 1.609375 -19.421875 Z M 6.328125 -19.421875 "/></g></g></g><g fill="#ff66c4" fill-opacity="1"><g transform="translate(142.843693, 189.023601)"><g><path d="M 14.796875 -5.890625 C 14.796875 -4.691406 14.488281 -3.625 13.875 -2.6875 C 13.269531 -1.75 12.390625 -1.019531 11.234375 -0.5 C 10.085938 0.0078125 8.738281 0.265625 7.1875 0.265625 C 5.894531 0.265625 4.804688 0.175781 3.921875 0 C 3.046875 -0.1875 2.140625 -0.503906 1.203125 -0.953125 L 1.203125 -5.625 C 2.203125 -5.113281 3.238281 -4.710938 4.3125 -4.421875 C 5.394531 -4.140625 6.390625 -4 7.296875 -4 C 8.078125 -4 8.644531 -4.132812 9 -4.40625 C 9.363281 -4.675781 9.546875 -5.023438 9.546875 -5.453125 C 9.546875 -5.710938 9.472656 -5.941406 9.328125 -6.140625 C 9.179688 -6.335938 8.945312 -6.535156 8.625 -6.734375 C 8.300781 -6.941406 7.441406 -7.363281 6.046875 -8 C 4.773438 -8.570312 3.820312 -9.128906 3.1875 -9.671875 C 2.5625 -10.210938 2.09375 -10.832031 1.78125 -11.53125 C 1.476562 -12.226562 1.328125 -13.054688 1.328125 -14.015625 C 1.328125 -15.804688 1.976562 -17.203125 3.28125 -18.203125 C 4.582031 -19.203125 6.367188 -19.703125 8.640625 -19.703125 C 10.648438 -19.703125 12.703125 -19.234375 14.796875 -18.296875 L 13.1875 -14.25 C 11.375 -15.082031 9.804688 -15.5 8.484375 -15.5 C 7.804688 -15.5 7.3125 -15.378906 7 -15.140625 C 6.6875 -14.898438 6.53125 -14.601562 6.53125 -14.25 C 6.53125 -13.875 6.726562 -13.535156 7.125 -13.234375 C 7.519531 -12.929688 8.585938 -12.378906 10.328125 -11.578125 C 12.003906 -10.828125 13.164062 -10.019531 13.8125 -9.15625 C 14.46875 -8.289062 14.796875 -7.203125 14.796875 -5.890625 Z M 14.796875 -5.890625 "/></g></g></g><g fill="#ff66c4" fill-opacity="1"><g transform="translate(161.562278, 189.023601)"><g/></g></g><g fill="#ff66c4" fill-opacity="1"><g transform="translate(171.648299, 189.023601)"><g><path d="M 7.34375 -7.0625 L 7.34375 0 L 2.09375 0 L 2.09375 -19.421875 L 8.46875 -19.421875 C 13.738281 -19.421875 16.375 -17.507812 16.375 -13.6875 C 16.375 -11.4375 15.273438 -9.695312 13.078125 -8.46875 L 18.734375 0 L 12.796875 0 L 8.671875 -7.0625 Z M 7.34375 -11.015625 L 8.328125 -11.015625 C 10.160156 -11.015625 11.078125 -11.820312 11.078125 -13.4375 C 11.078125 -14.78125 10.175781 -15.453125 8.375 -15.453125 L 7.34375 -15.453125 Z M 7.34375 -11.015625 "/></g></g></g><g fill="#ff66c4" fill-opacity="1"><g transform="translate(193.076181, 189.023601)"><g><path d="M 13.625 0 L 2.09375 0 L 2.09375 -19.421875 L 13.625 -19.421875 L 13.625 -15.203125 L 7.34375 -15.203125 L 7.34375 -12.15625 L 13.15625 -12.15625 L 13.15625 -7.9375 L 7.34375 -7.9375 L 7.34375 -4.28125 L 13.625 -4.28125 Z M 13.625 0 "/></g></g></g><g fill="#ff66c4" fill-opacity="1"><g transform="translate(211.024475, 189.023601)"><g><path d="M 14.796875 -5.890625 C 14.796875 -4.691406 14.488281 -3.625 13.875 -2.6875 C 13.269531 -1.75 12.390625 -1.019531 11.234375 -0.5 C 10.085938 0.0078125 8.738281 0.265625 7.1875 0.265625 C 5.894531 0.265625 4.804688 0.175781 3.921875 0 C 3.046875 -0.1875 2.140625 -0.503906 1.203125 -0.953125 L 1.203125 -5.625 C 2.203125 -5.113281 3.238281 -4.710938 4.3125 -4.421875 C 5.394531 -4.140625 6.390625 -4 7.296875 -4 C 8.078125 -4 8.644531 -4.132812 9 -4.40625 C 9.363281 -4.675781 9.546875 -5.023438 9.546875 -5.453125 C 9.546875 -5.710938 9.472656 -5.941406 9.328125 -6.140625 C 9.179688 -6.335938 8.945312 -6.535156 8.625 -6.734375 C 8.300781 -6.941406 7.441406 -7.363281 6.046875 -8 C 4.773438 -8.570312 3.820312 -9.128906 3.1875 -9.671875 C 2.5625 -10.210938 2.09375 -10.832031 1.78125 -11.53125 C 1.476562 -12.226562 1.328125 -13.054688 1.328125 -14.015625 C 1.328125 -15.804688 1.976562 -17.203125 3.28125 -18.203125 C 4.582031 -19.203125 6.367188 -19.703125 8.640625 -19.703125 C 10.648438 -19.703125 12.703125 -19.234375 14.796875 -18.296875 L 13.1875 -14.25 C 11.375 -15.082031 9.804688 -15.5 8.484375 -15.5 C 7.804688 -15.5 7.3125 -15.378906 7 -15.140625 C 6.6875 -14.898438 6.53125 -14.601562 6.53125 -14.25 C 6.53125 -13.875 6.726562 -13.535156 7.125 -13.234375 C 7.519531 -12.929688 8.585938 -12.378906 10.328125 -11.578125 C 12.003906 -10.828125 13.164062 -10.019531 13.8125 -9.15625 C 14.46875 -8.289062 14.796875 -7.203125 14.796875 -5.890625 Z M 14.796875 -5.890625 "/></g></g></g><g fill="#ff66c4" fill-opacity="1"><g transform="translate(229.74306, 189.023601)"><g><path d="M 10.671875 0 L 5.421875 0 L 5.421875 -15.125 L 0.671875 -15.125 L 0.671875 -19.421875 L 15.390625 -19.421875 L 15.390625 -15.125 L 10.671875 -15.125 Z M 10.671875 0 "/></g></g></g><g fill="#ff66c4" fill-opacity="1"><g transform="translate(248.833521, 189.023601)"><g><path d="M 18.609375 -19.421875 L 18.609375 -7.734375 C 18.609375 -5.191406 17.890625 -3.222656 16.453125 -1.828125 C 15.015625 -0.429688 12.941406 0.265625 10.234375 0.265625 C 7.578125 0.265625 5.539062 -0.410156 4.125 -1.765625 C 2.707031 -3.117188 2 -5.066406 2 -7.609375 L 2 -19.421875 L 7.265625 -19.421875 L 7.265625 -8.015625 C 7.265625 -6.648438 7.519531 -5.65625 8.03125 -5.03125 C 8.550781 -4.414062 9.3125 -4.109375 10.3125 -4.109375 C 11.382812 -4.109375 12.160156 -4.414062 12.640625 -5.03125 C 13.117188 -5.644531 13.359375 -6.648438 13.359375 -8.046875 L 13.359375 -19.421875 Z M 18.609375 -19.421875 "/></g></g></g><g fill="#ff66c4" fill-opacity="1"><g transform="translate(272.439476, 189.023601)"><g><path d="M 7.34375 -7.0625 L 7.34375 0 L 2.09375 0 L 2.09375 -19.421875 L 8.46875 -19.421875 C 13.738281 -19.421875 16.375 -17.507812 16.375 -13.6875 C 16.375 -11.4375 15.273438 -9.695312 13.078125 -8.46875 L 18.734375 0 L 12.796875 0 L 8.671875 -7.0625 Z M 7.34375 -11.015625 L 8.328125 -11.015625 C 10.160156 -11.015625 11.078125 -11.820312 11.078125 -13.4375 C 11.078125 -14.78125 10.175781 -15.453125 8.375 -15.453125 L 7.34375 -15.453125 Z M 7.34375 -11.015625 "/></g></g></g><g fill="#ff66c4" fill-opacity="1"><g transform="translate(293.867369, 189.023601)"><g><path d="M 14.015625 0 L 13.0625 -3.640625 L 6.75 -3.640625 L 5.765625 0 L 0 0 L 6.328125 -19.5 L 13.328125 -19.5 L 19.75 0 Z M 11.96875 -7.9375 L 11.125 -11.125 C 10.9375 -11.832031 10.703125 -12.75 10.421875 -13.875 C 10.140625 -15 9.957031 -15.804688 9.875 -16.296875 C 9.789062 -15.847656 9.628906 -15.101562 9.390625 -14.0625 C 9.160156 -13.03125 8.644531 -10.988281 7.84375 -7.9375 Z M 11.96875 -7.9375 "/></g></g></g><g fill="#ff66c4" fill-opacity="1"><g transform="translate(316.636624, 189.023601)"><g><path d="M 20.59375 0 L 13.703125 0 L 6.609375 -13.6875 L 6.5 -13.6875 C 6.664062 -11.53125 6.75 -9.882812 6.75 -8.75 L 6.75 0 L 2.09375 0 L 2.09375 -19.421875 L 8.953125 -19.421875 L 16.015625 -5.921875 L 16.09375 -5.921875 C 15.96875 -7.878906 15.90625 -9.453125 15.90625 -10.640625 L 15.90625 -19.421875 L 20.59375 -19.421875 Z M 20.59375 0 "/></g></g></g><g fill="#ff66c4" fill-opacity="1"><g transform="translate(342.340945, 189.023601)"><g><path d="M 10.671875 0 L 5.421875 0 L 5.421875 -15.125 L 0.671875 -15.125 L 0.671875 -19.421875 L 15.390625 -19.421875 L 15.390625 -15.125 L 10.671875 -15.125 Z M 10.671875 0 "/></g></g></g><path stroke-linecap="round" transform="matrix(0.7497, 0.00158766, -0.00158829, 0.749998, 98.962323, 192.953851)" fill="none" stroke-linejoin="miter" d="M 0.499407 0.497977 L 235.603728 0.50029 " stroke="#ed8c22" stroke-width="1" stroke-opacity="1" stroke-miterlimit="4"/><g fill="#04f624" fill-opacity="1"><g transform="translate(40.209629, 208.755104)"><g><path d="M 7.765625 0 L 1.390625 0 L 1.390625 -11.0625 L 7.765625 -11.0625 L 7.765625 -9.140625 L 3.734375 -9.140625 L 3.734375 -6.71875 L 7.484375 -6.71875 L 7.484375 -4.796875 L 3.734375 -4.796875 L 3.734375 -1.9375 L 7.765625 -1.9375 Z M 7.765625 0 "/></g></g></g><g fill="#04f624" fill-opacity="1"><g transform="translate(61.292239, 208.755104)"><g><path d="M 10.34375 0 L 7.65625 0 L 5.09375 -4.1875 L 2.515625 0 L 0 0 L 3.671875 -5.703125 L 0.234375 -11.0625 L 2.828125 -11.0625 L 5.203125 -7.078125 L 7.546875 -11.0625 L 10.078125 -11.0625 L 6.59375 -5.578125 Z M 10.34375 0 "/></g></g></g><g fill="#04f624" fill-opacity="1"><g transform="translate(84.031484, 208.755104)"><g><path d="M 3.734375 -5.859375 L 4.515625 -5.859375 C 5.234375 -5.859375 5.769531 -6 6.125 -6.28125 C 6.488281 -6.570312 6.671875 -6.988281 6.671875 -7.53125 C 6.671875 -8.082031 6.519531 -8.488281 6.21875 -8.75 C 5.914062 -9.007812 5.445312 -9.140625 4.8125 -9.140625 L 3.734375 -9.140625 Z M 9.03125 -7.609375 C 9.03125 -6.421875 8.65625 -5.507812 7.90625 -4.875 C 7.164062 -4.25 6.113281 -3.9375 4.75 -3.9375 L 3.734375 -3.9375 L 3.734375 0 L 1.390625 0 L 1.390625 -11.0625 L 4.921875 -11.0625 C 6.265625 -11.0625 7.285156 -10.769531 7.984375 -10.1875 C 8.679688 -9.613281 9.03125 -8.753906 9.03125 -7.609375 Z M 9.03125 -7.609375 "/></g></g></g><g fill="#04f624" fill-opacity="1"><g transform="translate(106.165564, 208.755104)"><g><path d="M 7.765625 0 L 1.390625 0 L 1.390625 -11.0625 L 7.765625 -11.0625 L 7.765625 -9.140625 L 3.734375 -9.140625 L 3.734375 -6.71875 L 7.484375 -6.71875 L 7.484375 -4.796875 L 3.734375 -4.796875 L 3.734375 -1.9375 L 7.765625 -1.9375 Z M 7.765625 0 "/></g></g></g><g fill="#04f624" fill-opacity="1"><g transform="translate(127.248177, 208.755104)"><g><path d="M 3.734375 -6.15625 L 4.5 -6.15625 C 5.238281 -6.15625 5.785156 -6.273438 6.140625 -6.515625 C 6.492188 -6.765625 6.671875 -7.15625 6.671875 -7.6875 C 6.671875 -8.21875 6.488281 -8.59375 6.125 -8.8125 C 5.757812 -9.03125 5.203125 -9.140625 4.453125 -9.140625 L 3.734375 -9.140625 Z M 3.734375 -4.25 L 3.734375 0 L 1.390625 0 L 1.390625 -11.0625 L 4.609375 -11.0625 C 6.117188 -11.0625 7.234375 -10.785156 7.953125 -10.234375 C 8.671875 -9.691406 9.03125 -8.863281 9.03125 -7.75 C 9.03125 -7.101562 8.851562 -6.523438 8.5 -6.015625 C 8.144531 -5.503906 7.640625 -5.109375 6.984375 -4.828125 C 8.640625 -2.335938 9.722656 -0.726562 10.234375 0 L 7.625 0 L 4.984375 -4.25 Z M 3.734375 -4.25 "/></g></g></g><g fill="#04f624" fill-opacity="1"><g transform="translate(149.881522, 208.755104)"><g><path d="M 1.390625 0 L 1.390625 -11.0625 L 3.734375 -11.0625 L 3.734375 0 Z M 1.390625 0 "/></g></g></g><g fill="#04f624" fill-opacity="1"><g transform="translate(167.416364, 208.755104)"><g><path d="M 7.765625 0 L 1.390625 0 L 1.390625 -11.0625 L 7.765625 -11.0625 L 7.765625 -9.140625 L 3.734375 -9.140625 L 3.734375 -6.71875 L 7.484375 -6.71875 L 7.484375 -4.796875 L 3.734375 -4.796875 L 3.734375 -1.9375 L 7.765625 -1.9375 Z M 7.765625 0 "/></g></g></g><g fill="#04f624" fill-opacity="1"><g transform="translate(188.498978, 208.755104)"><g><path d="M 11.203125 0 L 8.234375 0 L 3.40625 -8.375 L 3.34375 -8.375 C 3.4375 -6.894531 3.484375 -5.835938 3.484375 -5.203125 L 3.484375 0 L 1.390625 0 L 1.390625 -11.0625 L 4.359375 -11.0625 L 9.15625 -2.78125 L 9.203125 -2.78125 C 9.128906 -4.21875 9.09375 -5.234375 9.09375 -5.828125 L 9.09375 -11.0625 L 11.203125 -11.0625 Z M 11.203125 0 "/></g></g></g><g fill="#04f624" fill-opacity="1"><g transform="translate(213.500025, 208.755104)"><g><path d="M 6.09375 -9.265625 C 5.207031 -9.265625 4.519531 -8.929688 4.03125 -8.265625 C 3.550781 -7.609375 3.3125 -6.6875 3.3125 -5.5 C 3.3125 -3.03125 4.238281 -1.796875 6.09375 -1.796875 C 6.875 -1.796875 7.816406 -1.992188 8.921875 -2.390625 L 8.921875 -0.421875 C 8.003906 -0.0351562 6.988281 0.15625 5.875 0.15625 C 4.257812 0.15625 3.023438 -0.332031 2.171875 -1.3125 C 1.328125 -2.289062 0.90625 -3.691406 0.90625 -5.515625 C 0.90625 -6.671875 1.113281 -7.679688 1.53125 -8.546875 C 1.945312 -9.410156 2.546875 -10.070312 3.328125 -10.53125 C 4.117188 -10.988281 5.039062 -11.21875 6.09375 -11.21875 C 7.164062 -11.21875 8.242188 -10.957031 9.328125 -10.4375 L 8.578125 -8.53125 C 8.160156 -8.726562 7.742188 -8.898438 7.328125 -9.046875 C 6.910156 -9.191406 6.5 -9.265625 6.09375 -9.265625 Z M 6.09375 -9.265625 "/></g></g></g><g fill="#04f624" fill-opacity="1"><g transform="translate(235.777837, 208.755104)"><g><path d="M 7.765625 0 L 1.390625 0 L 1.390625 -11.0625 L 7.765625 -11.0625 L 7.765625 -9.140625 L 3.734375 -9.140625 L 3.734375 -6.71875 L 7.484375 -6.71875 L 7.484375 -4.796875 L 3.734375 -4.796875 L 3.734375 -1.9375 L 7.765625 -1.9375 Z M 7.765625 0 "/></g></g></g><g fill="#04f624" fill-opacity="1"><g transform="translate(256.860439, 208.755104)"><g/></g></g><g fill="#04f624" fill-opacity="1"><g transform="translate(273.290858, 208.755104)"><g><path d="M 5.65625 0 L 3.3125 0 L 3.3125 -9.109375 L 0.3125 -9.109375 L 0.3125 -11.0625 L 8.671875 -11.0625 L 8.671875 -9.109375 L 5.65625 -9.109375 Z M 5.65625 0 "/></g></g></g><g fill="#04f624" fill-opacity="1"><g transform="translate(294.668489, 208.755104)"><g><path d="M 10.453125 0 L 8.125 0 L 8.125 -4.78125 L 3.734375 -4.78125 L 3.734375 0 L 1.390625 0 L 1.390625 -11.0625 L 3.734375 -11.0625 L 3.734375 -6.734375 L 8.125 -6.734375 L 8.125 -11.0625 L 10.453125 -11.0625 Z M 10.453125 0 "/></g></g></g><g fill="#04f624" fill-opacity="1"><g transform="translate(318.9282, 208.755104)"><g><path d="M 7.765625 0 L 1.390625 0 L 1.390625 -11.0625 L 7.765625 -11.0625 L 7.765625 -9.140625 L 3.734375 -9.140625 L 3.734375 -6.71875 L 7.484375 -6.71875 L 7.484375 -4.796875 L 3.734375 -4.796875 L 3.734375 -1.9375 L 7.765625 -1.9375 Z M 7.765625 0 "/></g></g></g><g fill="#04f624" fill-opacity="1"><g transform="translate(148.151028, 229.755103)"><g><path d="M 7.703125 -11.0625 L 10.078125 -11.0625 L 6.3125 0 L 3.75 0 L 0 -11.0625 L 2.375 -11.0625 L 4.453125 -4.484375 C 4.566406 -4.085938 4.6875 -3.628906 4.8125 -3.109375 C 4.9375 -2.597656 5.015625 -2.242188 5.046875 -2.046875 C 5.097656 -2.503906 5.285156 -3.316406 5.609375 -4.484375 Z M 7.703125 -11.0625 "/></g></g></g><g fill="#04f624" fill-opacity="1"><g transform="translate(170.625514, 229.755103)"><g><path d="M 1.390625 0 L 1.390625 -11.0625 L 3.734375 -11.0625 L 3.734375 0 Z M 1.390625 0 "/></g></g></g><g fill="#04f624" fill-opacity="1"><g transform="translate(188.160353, 229.755103)"><g><path d="M 1.390625 -11.0625 L 4.84375 -11.0625 C 6.40625 -11.0625 7.539062 -10.835938 8.25 -10.390625 C 8.957031 -9.941406 9.3125 -9.234375 9.3125 -8.265625 C 9.3125 -7.597656 9.15625 -7.050781 8.84375 -6.625 C 8.539062 -6.207031 8.128906 -5.957031 7.609375 -5.875 L 7.609375 -5.796875 C 8.316406 -5.640625 8.820312 -5.347656 9.125 -4.921875 C 9.4375 -4.492188 9.59375 -3.921875 9.59375 -3.203125 C 9.59375 -2.203125 9.226562 -1.414062 8.5 -0.84375 C 7.769531 -0.28125 6.78125 0 5.53125 0 L 1.390625 0 Z M 3.734375 -6.6875 L 5.09375 -6.6875 C 5.738281 -6.6875 6.203125 -6.78125 6.484375 -6.96875 C 6.765625 -7.164062 6.90625 -7.492188 6.90625 -7.953125 C 6.90625 -8.378906 6.75 -8.679688 6.4375 -8.859375 C 6.132812 -9.046875 5.644531 -9.140625 4.96875 -9.140625 L 3.734375 -9.140625 Z M 3.734375 -4.828125 L 3.734375 -1.9375 L 5.265625 -1.9375 C 5.910156 -1.9375 6.382812 -2.054688 6.6875 -2.296875 C 7 -2.546875 7.15625 -2.925781 7.15625 -3.4375 C 7.15625 -4.363281 6.5 -4.828125 5.1875 -4.828125 Z M 3.734375 -4.828125 "/></g></g></g><g fill="#04f624" fill-opacity="1"><g transform="translate(210.975242, 229.755103)"><g><path d="M 7.765625 0 L 1.390625 0 L 1.390625 -11.0625 L 7.765625 -11.0625 L 7.765625 -9.140625 L 3.734375 -9.140625 L 3.734375 -6.71875 L 7.484375 -6.71875 L 7.484375 -4.796875 L 3.734375 -4.796875 L 3.734375 -1.9375 L 7.765625 -1.9375 Z M 7.765625 0 "/></g></g></g></svg>